<?xml version="1.0" encoding="UTF-8" standalone="no"?>
<!-- Created with Inkscape (http://www.inkscape.org/) -->

<svg
   width="300"
   height="300"
   viewBox="0 0 79.374999 79.375"
   version="1.1"
   id="svg5"
   inkscape:version="1.3.2 (091e20e, 2023-11-25, custom)"
   sodipodi:docname="interfaceMinigame.svg"
   inkscape:export-filename="sprInterfaceMinigame.png"
   inkscape:export-xdpi="96"
   inkscape:export-ydpi="96"
   xmlns:inkscape="http://www.inkscape.org/namespaces/inkscape"
   xmlns:sodipodi="http://sodipodi.sourceforge.net/DTD/sodipodi-0.dtd"
   xmlns:xlink="http://www.w3.org/1999/xlink"
   xmlns="http://www.w3.org/2000/svg"
   xmlns:svg="http://www.w3.org/2000/svg">
  <sodipodi:namedview
     id="namedview7"
     pagecolor="#ffffff"
     bordercolor="#999999"
     borderopacity="1"
     inkscape:showpageshadow="true"
     inkscape:pageopacity="0"
     inkscape:pagecheckerboard="true"
     inkscape:deskcolor="#d1d1d1"
     inkscape:document-units="px"
     showgrid="true"
     inkscape:zoom="0.6425"
     inkscape:cx="241.24514"
     inkscape:cy="114.39689"
     inkscape:window-width="1920"
     inkscape:window-height="1009"
     inkscape:window-x="-8"
     inkscape:window-y="-8"
     inkscape:window-maximized="1"
     inkscape:current-layer="layer1">
    <inkscape:grid
       type="xygrid"
       id="grid326"
       spacingx="4.2333333"
       spacingy="4.2333333"
       empspacing="8"
       originx="0"
       originy="0"
       units="px"
       visible="true" />
    <inkscape:page
       x="0"
       y="0"
       width="79.375"
       height="79.375"
       id="page14"
       margin="0"
       bleed="0"
       inkscape:label="sprInterfaceMinigame_0" />
    <inkscape:page
       x="89.375"
       y="0"
       width="79.375"
       height="79.375"
       id="page15"
       margin="0"
       bleed="0"
       inkscape:label="sprInterfaceMinigame_1" />
  </sodipodi:namedview>
  <defs
     id="defs2">
    <linearGradient
       id="linearGradient12"
       inkscape:collect="always">
      <stop
         style="stop-color:#ffd322;stop-opacity:1;"
         offset="0"
         id="stop12" />
      <stop
         style="stop-color:#af8c02;stop-opacity:1;"
         offset="0.93643034"
         id="stop14" />
      <stop
         style="stop-color:#ffdd51;stop-opacity:1;"
         offset="1"
         id="stop13" />
    </linearGradient>
    <linearGradient
       id="linearGradient8"
       inkscape:collect="always">
      <stop
         style="stop-color:#ffeb9c;stop-opacity:1;"
         offset="0"
         id="stop8" />
      <stop
         style="stop-color:#c89f00;stop-opacity:1;"
         offset="0.48044011"
         id="stop10" />
      <stop
         style="stop-color:#ffe580;stop-opacity:1;"
         offset="1"
         id="stop9" />
    </linearGradient>
    <linearGradient
       id="linearGradient5"
       inkscape:collect="always">
      <stop
         style="stop-color:#204277;stop-opacity:1;"
         offset="0"
         id="stop5" />
      <stop
         style="stop-color:#162d50;stop-opacity:1;"
         offset="1"
         id="stop6" />
    </linearGradient>
    <filter
       inkscape:collect="always"
       style="color-interpolation-filters:sRGB"
       id="filter5"
       x="-0.01199008"
       y="-0.012009937"
       width="1.0239802"
       height="1.0240199">
      <feGaussianBlur
         inkscape:collect="always"
         stdDeviation="0.37338318"
         id="feGaussianBlur5" />
    </filter>
    <radialGradient
       inkscape:collect="always"
       xlink:href="#linearGradient8"
       id="radialGradient9"
       cx="20.384241"
       cy="17.810472"
       fx="20.384241"
       fy="17.810472"
       r="30.360937"
       gradientUnits="userSpaceOnUse"
       gradientTransform="matrix(1.1508934,1.6317774,-1.8884239,1.3319043,30.557875,-39.173916)" />
    <radialGradient
       inkscape:collect="always"
       xlink:href="#linearGradient8"
       id="radialGradient12"
       cx="11.296613"
       cy="15.810036"
       fx="11.296613"
       fy="15.810036"
       r="39.35677"
       gradientUnits="userSpaceOnUse"
       gradientTransform="matrix(1.2082908,1.6111168,-1.3233523,0.99247577,18.569267,-18.081204)" />
    <radialGradient
       inkscape:collect="always"
       xlink:href="#linearGradient12"
       id="radialGradient13"
       cx="18.721922"
       cy="17.265978"
       fx="18.721922"
       fy="17.265978"
       r="37.636978"
       gradientUnits="userSpaceOnUse"
       gradientTransform="matrix(1.2634982,1.376453,-0.95252909,0.87436249,11.513151,-23.60059)" />
    <radialGradient
       inkscape:collect="always"
       xlink:href="#linearGradient8"
       id="radialGradient9-3"
       cx="20.384241"
       cy="17.810472"
       fx="20.384241"
       fy="17.810472"
       r="30.360937"
       gradientUnits="userSpaceOnUse"
       gradientTransform="matrix(1.1508934,1.6317774,-1.8884239,1.3319043,119.93288,-39.173918)" />
    <radialGradient
       inkscape:collect="always"
       xlink:href="#linearGradient5"
       id="radialGradient6-5"
       cx="25.929167"
       cy="25.664583"
       fx="25.929167"
       fy="25.664583"
       r="28.24427"
       gradientUnits="userSpaceOnUse"
       gradientTransform="matrix(0.56273923,0.77109387,-0.85036207,0.62058952,122.537,-10.256411)" />
  </defs>
  <g
     inkscape:label="Camada 1"
     inkscape:groupmode="layer"
     id="layer1">
    <circle
       style="fill:url(#radialGradient12);stroke:none;stroke-width:1.37191;stroke-linecap:round;stroke-linejoin:round;paint-order:markers stroke fill"
       id="circle2"
       cx="39.6875"
       cy="39.6875"
       r="39.35677" />
    <circle
       style="fill:url(#radialGradient13);stroke:none;stroke-width:1.31196;stroke-linecap:round;stroke-linejoin:round;paint-order:markers stroke fill"
       id="circle3"
       cx="39.6875"
       cy="39.6875"
       r="37.636978" />
    <circle
       style="fill:url(#radialGradient9);stroke:none;stroke-width:1.05833;stroke-linecap:round;stroke-linejoin:round;paint-order:markers stroke fill;fill-opacity:1"
       id="path1"
       cx="39.6875"
       cy="39.6875"
       r="30.360937" />
    <path
       d="m 69.972282,41.048237 0.02645,-0.867762 7.052286,0.214937 -0.02645,0.867762 z m -0.628626,4.926717 0.167783,-0.851798 6.922544,1.363569 -0.167783,0.851797 z m -1.42464,4.757955 0.304615,-0.81297 6.606991,2.4756 -0.304614,0.812969 z m -2.182408,4.461483 0.43327,-0.752321 6.114099,3.521182 -0.43327,0.752321 z m -2.881609,4.045253 0.550297,-0.671478 5.457095,4.472252 -0.550297,0.671479 z m -3.503447,3.52045 0.652552,-0.572613 4.653616,5.30328 -0.652552,0.572613 z m -4.03126,2.901149 0.737292,-0.458378 3.725227,5.991962 -0.737292,0.458378 z m -4.450867,2.203982 0.802242,-0.331839 2.696848,6.519812 -0.802243,0.331839 z m -4.751,1.447647 0.84566,-0.196393 1.596082,6.872659 -0.845659,0.196393 z m -4.923618,0.652464 0.866377,-0.05568 0.452477,7.041036 -0.866377,0.05568 z m -4.964078,-0.160231 0.863841,0.08654 -0.703276,7.020422 -0.863841,-0.08654 z m -4.871289,-0.968627 0.838118,0.226425 -1.840151,6.811371 -0.838118,-0.226425 z m -4.647758,-1.751027 0.789898,0.360237 -2.927634,6.419492 -0.789898,-0.360236 z m -4.299465,-2.486425 0.720477,0.484379 -3.936535,5.855307 -0.720477,-0.484378 z m -3.835777,-3.155087 0.631717,0.595519 -4.839774,5.133957 -0.631718,-0.59552 z m -3.269125,-3.739054 0.526002,0.690675 -5.613108,4.274805 -0.5260009,-0.690675 z m -2.614726,-4.222667 0.406166,0.767293 -6.2357771,3.30091 -0.4061666,-0.767293 z m -1.890151,-4.592938 0.27543,0.823315 -6.6910702,2.238415 -0.2754299,-0.823315 z M 9.6876047,44.049359 9.8249052,44.906598 2.8581389,46.022436 2.7208384,45.165198 Z M 9.3780077,39.09235 9.3734977,39.960503 2.318033,39.923813 2.322543,39.05566 Z M 9.8819586,34.151326 9.7357503,35.00709 2.7809655,33.818858 2.9271737,32.963093 Z M 11.185932,29.358893 10.901955,30.179299 4.2345256,27.871417 4.5185033,27.05101 Z M 13.25492,24.843704 12.840796,25.606732 6.6396847,22.241149 7.0538092,21.478121 Z M 16.033401,20.726933 15.500245,21.4121 9.9318987,17.079151 10.465055,16.393984 Z m 3.413388,-3.607844 -0.637877,0.588917 -4.786119,-5.184013 0.637877,-0.588917 z m 3.956679,-3.002076 -0.725475,0.476859 -3.875427,-5.8959307 0.725476,-0.4768591 z M 27.79722,11.801289 27.003618,12.153291 24.142904,5.7036979 24.936507,5.351696 Z M 32.510135,10.234063 31.669708,10.45176 29.900494,3.6216196 30.740922,3.4039234 Z M 37.415699,9.457408 36.551005,9.534955 35.92078,2.5075981 36.785474,2.4300511 Z m 4.966366,0.034747 -0.865752,-0.064678 0.525638,-7.0359529 0.865752,0.064678 z m 4.893859,0.845126 -0.843575,-0.205163 1.66735,-6.8557179 0.843575,0.2051622 z m 4.690208,1.63281 -0.798758,-0.340141 2.764315,-6.4914934 0.798758,0.3401403 z m 4.360667,2.376666 -0.732505,-0.465989 3.78709,-5.9530564 0.732505,0.4659896 z m 3.914125,3.056753 -0.646593,-0.579334 4.708233,-5.254852 0.646593,0.579333 z m 3.362528,3.654796 -0.543329,-0.677129 5.503018,-4.415622 0.543329,0.677129 z m 2.720678,4.154756 -0.425483,-0.756753 6.150117,-3.457888 0.425483,0.756752 z m 2.00582,4.5432 -0.296218,-0.816066 6.632162,-2.407356 0.296217,0.816067 z m 1.237135,4.809741 -0.159003,-0.85348 6.936217,-1.292213 0.159003,0.853479 z m 0.43525,4.947186 -0.01752,-0.867987 7.054123,-0.142393 0.01752,0.867988 z"
       id="text4"
       style="font-weight:bold;font-size:7.05556px;line-height:1.25;font-family:'Segoe UI';-inkscape-font-specification:'Segoe UI Bold';stroke-width:0.264583;opacity:0.1;filter:url(#filter5)"
       transform="rotate(-90,39.690181,39.690584)"
       aria-label="|  |  |  |  |  |  |  |  |  |  |  |  |  |  |  |  |  |  |  |  |  |  |  |  |  |  |  |  |  |  |  |  |  |  |  |  |  |  |  |"
       sodipodi:nodetypes="ccccccccccccccccccccccccccccccccccccccccccccccccccccccccccccccccccccccccccccccccccccccccccccccccccccccccccccccccccccccccccccccccccccccccccccccccccccccccccccccccccccccccccccccccccccccccccccccccccc" />
    <circle
       style="fill:url(#radialGradient9-3);fill-opacity:1;stroke:none;stroke-width:1.05833;stroke-linecap:round;stroke-linejoin:round;paint-order:markers stroke fill"
       id="path1-4"
       cx="129.0625"
       cy="39.6875"
       r="30.360937" />
    <circle
       style="fill:url(#radialGradient6-5);fill-opacity:1;stroke:none;stroke-width:0.984547;stroke-linecap:round;stroke-linejoin:round;paint-order:markers stroke fill"
       id="circle1-0"
       cx="129.0625"
       cy="39.6875"
       r="28.24427" />
  </g>
</svg>
